<?xml version="1.0" standalone="no"?>
<!DOCTYPE svg PUBLIC "-//W3C//DTD SVG 20010904//EN"
 "http://www.w3.org/TR/2001/REC-SVG-20010904/DTD/svg10.dtd">
<svg version="1.0" xmlns="http://www.w3.org/2000/svg"
 width="600.000000pt" height="600.000000pt" viewBox="0 0 600.000000 600.000000"
 preserveAspectRatio="xMidYMid meet">
<metadata>
Created by potrace 1.11, written by Peter Selinger 2001-2013
</metadata>
<g transform="translate(0.000000,600.000000) scale(0.100000,-0.100000)"
fill="#000000" stroke="none">
<path d="M4489 5996 c-2 -3 -31 -7 -64 -11 -198 -22 -371 -87 -550 -207 -100
-68 -153 -116 -320 -293 -97 -102 -287 -393 -379 -580 -73 -148 -146 -307
-146 -318 0 -3 -5 -18 -12 -34 -7 -15 -30 -79 -52 -142 -23 -63 -46 -116 -53
-118 -6 -2 -14 11 -18 29 -12 55 -107 372 -115 383 -4 6 -13 28 -20 50 -28 91
-138 325 -203 430 -182 300 -367 480 -592 578 -209 91 -469 93 -654 5 -319
-152 -459 -531 -332 -893 73 -206 172 -339 376 -504 74 -60 252 -181 266 -181
5 0 9 -4 9 -10 0 -6 -224 -11 -637 -12 l-638 -3 0 -747 -1 -748 188 0 188 0 0
-1335 0 -1335 2270 0 2270 0 0 1335 0 1335 188 0 187 0 -1 743 c-1 408 -2 745
-3 749 0 4 -251 9 -557 10 l-557 3 104 82 c296 233 462 457 547 738 41 138 53
291 32 422 -13 78 -62 207 -103 270 -54 83 -154 174 -242 219 -90 46 -128 57
-267 79 -111 17 -103 16 -109 11z m164 -441 c60 -25 123 -95 141 -156 43 -143
0 -331 -116 -507 -72 -110 -122 -165 -245 -267 -198 -165 -408 -291 -684 -409
l-107 -46 -161 0 c-109 0 -161 4 -161 11 0 6 11 38 24 72 13 34 30 80 36 102
7 22 16 45 21 50 4 6 15 33 24 60 34 99 199 426 242 480 5 6 20 28 33 50 129
214 394 468 540 520 24 8 48 19 54 24 6 5 43 16 81 25 85 19 223 15 278 -9z
m-2968 -135 c217 -32 423 -235 595 -585 83 -171 208 -514 194 -537 -3 -5 -13
-6 -23 -3 -9 4 -46 15 -83 25 -66 18 -88 25 -258 91 -307 118 -575 304 -686
476 -40 62 -84 201 -84 265 0 67 37 155 85 201 42 42 66 54 130 67 55 11 52
11 130 0z"/>
</g>
</svg>
